# xmcd CD database file
#
# Track frame offsets:
#	150
#	20518
#	46900
#	68178
#	82368
#	107328
#	133256
#	153374
#	171168
#	194712
#	224689
#
# Disc length: 3354 seconds
#
# Revision: 0
# Processed by: cddbd v1.5.2PL0 Copyright (c) Steve Scherf et al.
# Submitted via: CDex 1.98
#
DISCID=a40d180b
DTITLE=Kar lRatzer Quintet - Tears
DYEAR=2017
DGENRE=Jazz
TTITLE0=Dujii
TTITLE1=Tears
TTITLE2=Mary Ann
TTITLE3=Get On The Right Track, Baby
TTITLE4=Tyrone
TTITLE5=Signation
TTITLE6=Time
TTITLE7=Hallelujah I Love her So
TTITLE8=Oakland Stroke
TTITLE9=I Got A Woman
TTITLE10=Skylark
EXTD=YEAR: 2017
EXTT0=
EXTT1=
EXTT2=
EXTT3=
EXTT4=
EXTT5=
EXTT6=
EXTT7=
EXTT8=
EXTT9=
EXTT10=
PLAYORDER=
